<svg id="icons" enable-background="new 0 0 64 64" height="512" viewBox="0 0 64 64" width="512" xmlns="http://www.w3.org/2000/svg"><path d="m8 8h48v3h-48z" fill="#ccd1d9"/><path d="m8 5h48v3h-48z" fill="#aab2bd"/><path d="m56 11v24.38c-5.681-6.95-14.32-11.38-24-11.38-9.681 0-18.32 4.43-24 11.38v-24.38z" fill="#e6e9ed"/><path d="m63 55c0 2.21-1.79 4-4 4h-16v-4h.01c0-6.07-4.93-11-11.01-11-6.07 0-11 4.93-11 11v4h-16c-2.21 0-4-1.79-4-4 0-7.44 2.62-14.28 7-19.62 5.68-6.95 14.319-11.38 24-11.38 9.68 0 18.319 4.43 24 11.38 4.38 5.34 7 12.18 7 19.62z" fill="#ffce54"/><path d="m43.01 55h-.01v4h-3.99v-4c0-3.86-3.14-7-7.01-7-3.86 0-7 3.14-7 7v4h-4v-4c0-6.07 4.93-11 11-11 6.08 0 11.01 4.93 11.01 11z" fill="#f6bb42"/><path d="m39.01 55v4h-14.01v-4c0-3.86 3.14-7 7-7 3.87 0 7.01 3.14 7.01 7z" fill="#ffce54"/><path d="m8 36.38c-.553 0-1-.447-1-1v-24.378c0-.552.447-1 1-1h48c.553 0 1 .448 1 1v24.377c0 .553-.447 1-1 1s-1-.447-1-1v-23.377h-46v23.378c0 .553-.447 1-1 1z"/><path d="m63 56.002c-.553 0-1-.447-1-1 0-16.543-13.458-30.002-30-30.002s-30 13.459-30 30.002c0 .553-.447 1-1 1s-1-.447-1-1c0-17.646 14.355-32.002 32-32.002s32 14.356 32 32.002c0 .553-.447 1-1 1z"/><path d="m59.002 56.002c-.553 0-1-.447-1-1 0-14.339-11.664-26.004-26.002-26.004s-26.002 11.665-26.002 26.004c0 .553-.447 1-1 1s-1-.447-1-1c0-15.441 12.562-28.004 28.002-28.004s28.002 12.563 28.002 28.004c0 .553-.447 1-1 1z"/><path d="m43.003 56.002c-.553 0-1-.447-1-1 0-5.517-4.487-10.004-10.003-10.004s-10.003 4.487-10.003 10.004c0 .553-.447 1-1 1s-1-.447-1-1c0-6.619 5.385-12.004 12.003-12.004s12.003 5.385 12.003 12.004c0 .553-.447 1-1 1z"/><path d="m39.004 56.002c-.553 0-1-.447-1-1 0-3.311-2.693-6.004-6.004-6.004s-6.004 2.693-6.004 6.004c0 .553-.447 1-1 1s-1-.447-1-1c0-4.413 3.591-8.004 8.004-8.004s8.004 3.591 8.004 8.004c0 .553-.447 1-1 1z"/><path d="m5 60.002c-2.757 0-5-2.243-5-5 0-.553.447-1 1-1s1 .447 1 1c0 1.654 1.346 3 3 3 .553 0 1 .447 1 1s-.447 1-1 1z"/><path d="m59 60.002c-.553 0-1-.447-1-1s.447-1 1-1c1.654 0 3-1.346 3-3 0-.553.447-1 1-1s1 .447 1 1c0 2.757-2.243 5-5 5z"/><path d="m59 60.002h-54c-.553 0-1-.447-1-1s.447-1 1-1h54c.553 0 1 .447 1 1s-.447 1-1 1z"/><path d="m8 12.002c-.553 0-1-.448-1-1v-6.004c0-.552.447-1 1-1s1 .448 1 1v6.004c0 .552-.447 1-1 1z"/><path d="m56 12.002c-.553 0-1-.448-1-1v-6.004c0-.552.447-1 1-1s1 .448 1 1v6.004c0 .552-.447 1-1 1z"/><path d="m56 5.998h-48c-.553 0-1-.448-1-1s.447-1 1-1h48c.553 0 1 .448 1 1s-.447 1-1 1z"/><path d="m56 8.998h-48c-.553 0-1-.448-1-1s.447-1 1-1h48c.553 0 1 .448 1 1s-.447 1-1 1z"/><path d="m20.997 60.002c-.553 0-1-.447-1-1v-4c0-.553.447-1 1-1s1 .447 1 1v4c0 .553-.447 1-1 1z"/><path d="m25 60.002c-.553 0-1-.447-1-1v-4c0-.553.447-1 1-1s1 .447 1 1v4c0 .553-.447 1-1 1z"/><path d="m43 60.002c-.553 0-1-.447-1-1v-4c0-.553.447-1 1-1s1 .447 1 1v4c0 .553-.447 1-1 1z"/><path d="m39.004 60.002c-.553 0-1-.447-1-1v-4c0-.553.447-1 1-1s1 .447 1 1v4c0 .553-.447 1-1 1z"/></svg>