<svg id="Layer_5" enable-background="new 0 0 64 64" height="512" viewBox="0 0 64 64" width="512" xmlns="http://www.w3.org/2000/svg" xmlns:xlink="http://www.w3.org/1999/xlink"><linearGradient id="SVGID_1_" gradientUnits="userSpaceOnUse" x1="32" x2="32" y1="63" y2=".698"><stop offset="0" stop-color="#9f2fff"/><stop offset="1" stop-color="#0bb1d3"/></linearGradient><path d="m58.542 33.951 1.231-2.461-5.263-5.262-2.461 1.23c-1.403-.819-2.899-1.44-4.46-1.851l-.868-2.607h-7.441l-.869 2.606c-1.561.411-3.057 1.032-4.46 1.851l-2.461-1.23-5.041 5.041c-2.219-1.277-4.748-2.06-7.448-2.218v-2.05-1h3c3.859 0 7-3.14 7-7v-1h-5c-1.958 0-3.728.81-5 2.111v-1.517c1.578-.899 6-3.759 6-7.594 0-4.343-5.709-9.226-6.359-9.768l-.642-.534-.641.534c-.65.542-6.359 5.425-6.359 9.768 0 3.834 4.422 6.694 6 7.594v2.517c-1.272-1.301-3.042-2.111-5-2.111h-5v1c0 3.86 3.141 7 7 7h3v2.051c-8.908.522-16 7.913-16 16.949 0 9.374 7.626 17 17 17 4.615 0 8.8-1.854 11.866-4.849l1.623 1.622 2.461-1.23c1.403.819 2.899 1.44 4.46 1.851l.869 2.606h7.441l.869-2.606c1.561-.411 3.057-1.032 4.46-1.851l2.461 1.23 5.263-5.262-1.231-2.461c.819-1.403 1.44-2.899 1.852-4.46l2.606-.869v-7.441l-2.606-.869c-.412-1.561-1.033-3.057-1.852-4.46zm-34.542-13.951h2.899c-.465 2.279-2.484 4-4.899 4h-2.899c.464-2.279 2.484-4 4.899-4zm-10 5c-2.415 0-4.435-1.721-4.899-4h2.899c2.415 0 4.435 1.721 4.899 4zm-1-14c0-2.553 3.178-5.998 5-7.669 1.822 1.671 5 5.116 5 7.669 0 2.091-2.248 4.074-4 5.247v-3.833l2.707-2.707-1.414-1.414-1.293 1.293v-3.586h-2v5l-1.2-1.6-1.6 1.2 2.8 3.733v1.916c-1.752-1.169-4-3.15-4-5.249zm18.256 42h-5.034c.43-1.84.688-3.861.752-6h5.975c-.143 2.155-.732 4.188-1.693 6zm-13.256 8c-2.232 0-4.254-2.387-5.546-6h11.092c-1.292 3.613-3.314 6-5.546 6zm-6.159-8c-.462-1.821-.746-3.858-.816-6h13.951c-.07 2.142-.354 4.179-.816 6zm-8.79-6h5.975c.063 2.139.322 4.16.752 6h-5.034c-.961-1.812-1.55-3.845-1.693-6zm20.495-10h-4.546v-5.821c1.829.591 3.451 2.758 4.546 5.821zm-6.546-5.821v5.821h-4.546c1.095-3.063 2.717-5.23 4.546-5.821zm7.159 7.821c.462 1.821.746 3.858.816 6h-13.951c.07-2.142.354-4.179.816-6zm8.79 6h-5.975c-.063-2.139-.322-4.16-.752-6h5.034c.961 1.812 1.55 3.845 1.693 6zm-23.923 0h-5.975c.143-2.155.732-4.188 1.693-6h5.034c-.43 1.84-.689 3.861-.752 6zm25.744 3.667c1.805 2.614 4.819 4.333 8.23 4.333 5.514 0 10-4.486 10-10s-4.486-10-10-10c-4.251 0-7.882 2.672-9.326 6.421-.326-.775-.724-1.51-1.157-2.222 2.119-3.835 6.085-6.199 10.483-6.199 6.617 0 12 5.383 12 12s-5.383 12-12 12c-3.355 0-6.523-1.412-8.795-3.87.253-.796.431-1.622.565-2.463zm.23-5.667c0-4.411 3.589-8 8-8s8 3.589 8 8-3.589 8-8 8-8-3.589-8-8zm-9.336-6c-.658-2.023-1.528-3.762-2.566-5.089 2.759 1.002 5.137 2.785 6.874 5.089zm-12.762-5.089c-1.038 1.327-1.908 3.066-2.566 5.089h-4.308c1.737-2.304 4.115-4.087 6.874-5.089zm-6.874 23.089h4.308c.658 2.023 1.528 3.762 2.566 5.089-2.759-1.002-5.137-2.785-6.874-5.089zm17.07 5.089c1.038-1.327 1.908-3.066 2.566-5.089h4.308c-1.737 2.304-4.115 4.087-6.874 5.089zm37.902-14.81-2.294.765-.126.547c-.396 1.725-1.078 3.367-2.026 4.881l-.298.476 1.084 2.168-3.224 3.223-2.167-1.083-.477.298c-1.514.949-3.156 1.63-4.881 2.026l-.548.125-.764 2.295h-4.559l-.765-2.294-.548-.125c-1.725-.396-3.367-1.078-4.881-2.026l-.477-.298-2.167 1.083-.669-.668c.863-1.067 1.589-2.244 2.176-3.5 2.591 2.448 6.012 3.828 9.611 3.828 7.72 0 14-6.28 14-14s-6.28-14-14-14c-4.805 0-9.167 2.418-11.734 6.397-.905-1.13-1.956-2.134-3.116-3.002l3.734-3.734 2.167 1.083.477-.298c1.514-.949 3.156-1.63 4.881-2.026l.548-.125.764-2.295h4.559l.765 2.294.548.125c1.725.396 3.367 1.078 4.881 2.026l.477.298 2.167-1.083 3.224 3.223-1.084 2.168.298.476c.948 1.514 1.63 3.156 2.026 4.881l.126.547 2.292.766zm-21.293-37.572-1.414-1.414 4.707-4.707 4.707 4.707-1.414 1.414-2.293-2.293v15.586h-2v-15.586zm5.586 5.586 4.707-4.707 4.707 4.707-1.414 1.414-2.293-2.293v10.586h-2v-10.586l-2.293 2.293zm-12.586 1.414-1.414-1.414 4.707-4.707 4.707 4.707-1.414 1.414-2.293-2.293v10.586h-2v-10.586z" fill="url(#SVGID_1_)"/></svg>