<?xml version="1.0" encoding="iso-8859-1"?>
<!-- Generator: Adobe Illustrator 19.0.0, SVG Export Plug-In . SVG Version: 6.00 Build 0)  -->
<svg version="1.1" id="Capa_1" xmlns="http://www.w3.org/2000/svg" xmlns:xlink="http://www.w3.org/1999/xlink" x="0px" y="0px"
	 viewBox="0 0 520 520" style="enable-background:new 0 0 520 520;" xml:space="preserve">
<path style="fill:#D3D7DA;" d="M26.8,374.4h344c8.8,0,16-7.2,16-16V80.8h-376v277.6C10.8,367.2,18,374.4,26.8,374.4z"/>
<g>
	<rect x="41.52" y="111.632" style="fill:#FFFFFF;" width="314.4" height="232"/>
	<path style="fill:#FFFFFF;" d="M10.8,80.8h376V23.2c0-8.8-7.2-16-16-16h-344c-8.8,0-16,7.2-16,16C10.8,23.2,10.8,80.8,10.8,80.8z"
		/>
	<path style="fill:#FFFFFF;" d="M245.2,434.4H182v40.8c0,15.2,12.8,28,28,28h7.2c15.2,0,28-12.8,28-28V434.4z"/>
</g>
<path style="fill:#44C4A1;" d="M182.8,227.2V472c0,17.6,14.4,31.2,31.2,31.2H42c-17.6,0-31.2-14.4-31.2-31.2V227.2H182.8z"/>
<g>
	<rect x="42.8" y="259.2" style="fill:#FFFFFF;" width="108" height="212"/>
	<polygon style="fill:#FFFFFF;" points="436.4,503.2 374.8,464.8 314,503.2 338.8,338.4 410.8,338.4 	"/>
	<polygon style="fill:#FFFFFF;" points="478.8,295.2 506.8,268 478.8,240 489.2,201.6 450.8,192 441.2,153.6 402.8,164 374.8,136 
		347.6,164 309.2,153.6 298.8,192 261.2,201.6 271.6,240 243.6,268 271.6,295.2 261.2,333.6 298.8,344 309.2,381.6 347.6,371.2 
		374.8,399.2 402.8,371.2 441.2,381.6 450.8,344 489.2,333.6 	"/>
</g>
<circle style="fill:#FFBF5D;" cx="374.8" cy="268" r="73.6"/>
<g>
	<rect x="145.2" y="36" style="fill:#193651;" width="16" height="15.2"/>
	<rect x="97.2" y="36" style="fill:#193651;" width="16" height="15.2"/>
	<rect x="48.4" y="36" style="fill:#193651;" width="16" height="15.2"/>
	<rect x="62.8" y="288" style="fill:#193651;" width="67.2" height="16"/>
	<rect x="62.8" y="333.6" style="fill:#193651;" width="67.2" height="16"/>
	<rect x="62.8" y="380" style="fill:#193651;" width="67.2" height="16"/>
	<rect x="62.8" y="426.4" style="fill:#193651;" width="67.2" height="16"/>
	<path style="fill:#193651;" d="M405.2,155.2l-10.4-10.4c0-28,0-44.8,0-54.4s0-12,0-12c0-9.6,0-26.4,0-54.4c0-13.6-10.4-24-24-24
		h-344c-13.6,0-24,10.4-24,24c0,92.8,0,356,0,448.8C2.8,494.4,20.4,512,42,512c109.6,0,132.8,0,175.2,0c20,0,36-16,36-36v-48.8H190
		v-44h110.4l2.4,9.6l20-5.6L302,520l72-44.8l72,44.8l-20.8-132.8l20,5.6l11.2-41.6L498,340l-11.2-41.6l30.4-30.4l-30.4-30.4L498,196
		l-41.6-11.2l-11.2-41.6L405.2,155.2z M18.8,23.2c0-4.8,3.2-8,8-8h344c4.8,0,8,3.2,8,8v49.6h-360C18.8,72.8,18.8,23.2,18.8,23.2z
		 M42,495.2c-12.8,0-23.2-10.4-23.2-23.2c0-136.8,0-146.4,0-236.8h156V472c0,8.8,3.2,16.8,8,23.2H42z M237.2,442.4v32.8
		c0,9.6-6.4,20-23.2,20c-12.8,0-23.2-10.4-23.2-23.2v-29.6L237.2,442.4L237.2,442.4z M190.8,366.4V219.2h-172V88.8h360V128l-4-4
		l-29.6,31.2L303.6,144l-11.2,40.8L250.8,196l11.2,41.6L231.6,268l30.4,30.4l-10.4,40.8l41.6,11.2l4,16H190.8z M374.8,456
		l-50.4,31.2l16-105.6l4-0.8l30.4,30.4l30.4-30.4l4,0.8l16,105.6L374.8,456z M479.6,207.2l-9.6,34.4l25.6,25.6L470,292.8l9.6,34.4
		l-35.2,9.6l-9.6,34.4l-34.4-9.6l-25.6,25.6l-25.6-25.6l-34.4,9.6l-9.6-34.4l-34.4-9.6l9.6-34.4l-25.6-25.6l25.6-25.6l-9.6-34.4
		l34.4-9.6l9.6-34.4l34.4,9.6l25.6-25.6l25.6,25.6l34.4-9.6l9.6,34.4L479.6,207.2z"/>
</g>
<g>
</g>
<g>
</g>
<g>
</g>
<g>
</g>
<g>
</g>
<g>
</g>
<g>
</g>
<g>
</g>
<g>
</g>
<g>
</g>
<g>
</g>
<g>
</g>
<g>
</g>
<g>
</g>
<g>
</g>
</svg>
