<svg height="512pt" viewBox="0 0 512 512" width="512pt" xmlns="http://www.w3.org/2000/svg"><path d="m512 256c0 141.386719-114.613281 256-256 256s-256-114.613281-256-256 114.613281-256 256-256 256 114.613281 256 256zm0 0" fill="#ff0335"/><path d="m512 256c0-22.097656-2.800781-43.539062-8.0625-63.992188l-90.617188-90.617187h-324.640624v293.222656l111.199218 111.199219c18.0625 4.042969 36.839844 6.1875 56.121094 6.1875 141.386719 0 256-114.613281 256-256zm0 0" fill="#9a0011"/><path d="m88.679688 101.390625h324.640624v293.222656h-324.640624zm0 0" fill="#ffb84d"/><path d="m250.996094 101.386719h162.320312v293.226562h-162.320312zm0 0" fill="#ff8900"/><path d="m449.664062 326.078125c0 47.25-38.300781 85.554687-85.550781 85.554687s-85.554687-38.304687-85.554687-85.554687 38.304687-85.554687 85.554687-85.554687 85.550781 38.304687 85.550781 85.554687zm0 0" fill="#00ffea"/><path d="m449.671875 326.078125c0 47.25-38.3125 85.550781-85.5625 85.550781v-171.109375c47.25 0 85.5625 38.308594 85.5625 85.558594zm0 0" fill="#00ceb4"/><path d="m424.359375 326.078125c0 33.273437-26.972656 60.246094-60.246094 60.246094-33.273437 0-60.246093-26.972657-60.246093-60.246094s26.972656-60.246094 60.246093-60.246094c33.273438 0 60.246094 26.972657 60.246094 60.246094zm0 0" fill="#fff"/><path d="m424.355469 326.078125c0 33.273437-26.972657 60.25-60.246094 60.25v-120.496094c33.273437 0 60.246094 26.976563 60.246094 60.246094zm0 0" fill="#fff5cb"/><path d="m373.25 318.078125v-36.328125h-16v52.328125h50.75v-16zm0 0" fill="#004eb1"/><path d="m203.195312 101.390625h95.609376v84.851563h-95.609376zm0 0" fill="#ffec98"/><path d="m250.996094 101.386719h47.800781v84.855469h-47.800781zm0 0" fill="#ffdb2d"/></svg>